Coordinates
version=1
nRows=15
nColumns=46
inDegrees=yes

Units are S.I. units (second, meters, Newtons, ...)
Angles are in degrees.

endheader
time	pelvis_tilt	pelvis_list	pelvis_rotation	pelvis_tx	pelvis_ty	pelvis_tz	bb_angle	bb_tx	bb_ty	bb_tz	hip_flexion_r	hip_adduction_r	hip_rotation_r	knee_angle_r	knee_angle_r_beta	ankle_angle_r	subtalar_angle_r	mtp_angle_r	crank_angle_r	hip_flexion_l	hip_adduction_l	hip_rotation_l	knee_angle_l	knee_angle_l_beta	ankle_angle_l	subtalar_angle_l	mtp_angle_l	crank_angle_l	lumbar_extension	lumbar_bending	lumbar_rotation	arm_flex_r	arm_add_r	arm_rot_r	elbow_flex_r	pro_sup_r	wrist_flex_r	wrist_dev_r	arm_flex_l	arm_add_l	arm_rot_l	elbow_flex_l	pro_sup_l	wrist_flex_l	wrist_dev_l
      2.50500000	    -19.44764477	      4.29323202	      4.61428848	      0.06263239	      1.10819095	     -0.25183196	      0.00000000	      0.50000000	      0.00000000	      0.25000000	     69.92626430	     -8.89292388	      6.05450928	     95.92296485	      1.67417156	     -7.97204137	     -8.85711150	      0.00000000	      0.00000000	     64.84437355	     -0.94546379	     -4.33509031	     50.79070374	      0.88646501	      4.53653502	     -1.97803373	      0.00000000	      0.00000000	    -62.71235847	     -2.43721028	     -2.60774373	     89.41909259	    -24.87103367	     21.10100292	     64.84938589	     42.12939880	      0.00000000	      0.00000000	     89.39229711	    -11.97900173	     21.57063312	     71.11880976	     40.02051087	      0.00000000	      0.00000000
      2.51000000	    -19.49633763	      3.94652887	      4.18825971	      0.06346519	      1.10914085	     -0.25214255	      0.00000000	      0.50000000	      0.00000000	      0.25000000	     70.61152323	     -8.47266543	      5.90625106	     96.85517618	      1.69044172	     -7.71947429	     -8.77320994	      0.00000000	      0.00000000	     63.98247683	     -1.39313971	     -4.24865895	     49.39343965	      0.86207815	      3.45264729	     -1.64800973	      0.00000000	      0.00000000	    -62.62017963	     -2.39227005	     -2.10508172	     89.43970845	    -24.73017108	     21.24317862	     64.83411856	     42.09353821	      0.00000000	      0.00000000	     89.34605524	    -12.10908582	     21.52850229	     71.01616873	     39.97748616	      0.00000000	      0.00000000
      2.51500000	    -19.57994436	      3.60495452	      3.73391315	      0.06448245	      1.11000945	     -0.25238148	      0.00000000	      0.50000000	      0.00000000	      0.25000000	     71.33970836	     -8.01166300	      5.81033725	     97.79934935	      1.70692065	     -7.47041164	     -8.64703237	      0.00000000	      0.00000000	     63.13888222	     -1.91099264	     -4.27038174	     48.00256853	      0.83780287	      2.37327853	     -1.34068449	      0.00000000	      0.00000000	    -62.50339161	     -2.36047935	     -1.58025436	     89.45291606	    -24.59888401	     21.40576049	     64.83281598	     42.06373354	      0.00000000	      0.00000000	     89.29597159	    -12.24027772	     21.48220947	     70.90106670	     39.93689319	      0.00000000	      0.00000000
      2.52000000	    -19.59912783	      3.39751120	      3.23624005	      0.06551990	      1.11098358	     -0.25256239	      0.00000000	      0.50000000	      0.00000000	      0.25000000	     72.04617615	     -7.58478010	      5.84628929	     98.74166379	      1.72336714	     -7.19916612	     -8.43421927	      0.00000000	      0.00000000	     62.17329130	     -2.39436204	     -4.49774098	     46.57588143	      0.81290248	      1.15886366	     -1.21918289	      0.00000000	      0.00000000	    -62.44620307	     -2.48918527	     -1.21393338	     89.45969619	    -24.58187164	     21.71101155	     64.80632250	     41.98656902	      0.00000000	      0.00000000	     89.27566087	    -12.30189051	     21.50830989	     70.59064010	     39.85386796	      0.00000000	      0.00000000
      2.52500000	    -19.56198585	      3.23057813	      2.75662164	      0.06656463	      1.11197131	     -0.25291877	      0.00000000	      0.50000000	      0.00000000	      0.25000000	     72.72601592	     -7.23300559	      5.89720134	     99.70392698	      1.74016180	     -6.90929713	     -8.10120479	      0.00000000	      0.00000000	     61.10343190	     -2.79920825	     -4.70299913	     45.13088938	      0.78768261	      0.08346699	     -1.12305109	      0.00000000	      0.00000000	    -62.43116573	     -2.58503958	     -0.80901201	     89.46987202	    -24.66843375	     22.18181091	     64.77062397	     41.85566810	      0.00000000	      0.00000000	     89.24541209	    -12.31547172	     21.52856328	     70.22367452	     39.75022188	      0.00000000	      0.00000000
      2.53000000	    -19.61527148	      2.84029988	      2.33640955	      0.06758416	      1.11265693	     -0.25341614	      0.00000000	      0.50000000	      0.00000000	      0.25000000	     73.47835964	     -6.82963099	      5.69899231	    100.64654189	      1.75661354	     -6.68899545	     -7.97230528	      0.00000000	      0.00000000	     60.23018685	     -3.30386083	     -4.67034595	     43.81453578	      0.76470791	     -0.79262807	     -0.70465656	      0.00000000	      0.00000000	    -62.32627551	     -2.48858141	     -0.26214156	     89.48987269	    -24.59693460	     22.36478787	     64.79425270	     41.82393026	      0.00000000	      0.00000000	     89.17073724	    -12.45264211	     21.46903938	     70.12007234	     39.71781764	      0.00000000	      0.00000000
      2.53500000	    -19.51875914	      2.73329592	      1.79302084	      0.06880857	      1.11362755	     -0.25386747	      0.00000000	      0.50000000	      0.00000000	      0.25000000	     74.12698907	     -6.45784233	      5.85100740	    101.57610409	      1.77283746	     -6.31813133	     -7.44146882	      0.00000000	      0.00000000	     59.04910568	     -3.72586551	     -5.02271422	     42.38096969	      0.73968746	     -1.82398389	     -0.50732566	      0.00000000	      0.00000000	    -62.39291356	     -2.68197094	      0.12355198	     89.48628138	    -24.83857130	     22.96541883	     64.87426813	     41.65784912	      0.00000000	      0.00000000	     89.12490045	    -12.41422707	     21.49311456	     69.74190150	     39.63333555	      0.00000000	      0.00000000
      2.54000000	    -19.57166737	      2.30778813	      1.32375921	      0.06989635	      1.11418514	     -0.25455062	      0.00000000	      0.50000000	      0.00000000	      0.25000000	     74.89286240	     -6.00277568	      5.66862454	    102.46373950	      1.78832962	     -6.08688748	     -7.27356434	      0.00000000	      0.00000000	     58.14692665	     -4.25720342	     -4.95595922	     41.10785409	      0.71746740	     -2.61161045	     -0.14670414	      0.00000000	      0.00000000	    -62.28289045	     -2.55244367	      0.72622420	     89.49559133	    -24.75335989	     23.13028352	     64.93199791	     41.62952940	      0.00000000	      0.00000000	     89.02686084	    -12.56594992	     21.42845867	     69.66137501	     39.61408613	      0.00000000	      0.00000000
      2.54500000	    -19.43168544	      2.10012533	      0.75356195	      0.07119463	      1.11513612	     -0.25512462	      0.00000000	      0.50000000	      0.00000000	      0.25000000	     75.46204122	     -5.56964777	      5.73375363	    103.34073754	      1.80363612	     -5.58743232	     -6.62896609	      0.00000000	      0.00000000	     56.92902671	     -4.75176906	     -5.27602213	     39.73952843	      0.69358561	     -3.56089080	      0.12632157	      0.00000000	      0.00000000	    -62.38929007	     -2.69149830	      1.21378957	     89.50464664	    -25.02572349	     23.77405218	     65.05959881	     41.43203477	      0.00000000	      0.00000000	     88.96682888	    -12.55971775	     21.46315992	     69.34175876	     39.57344496	      0.00000000	      0.00000000
      2.55000000	    -19.47071911	      1.71673402	      0.27580918	      0.07221241	      1.11542896	     -0.25587164	      0.00000000	      0.50000000	      0.00000000	      0.25000000	     76.24464877	     -5.15428828	      5.54969869	    104.21930626	      1.81897004	     -5.27037023	     -6.52020596	      0.00000000	      0.00000000	     56.03651492	     -5.26540028	     -5.30042760	     38.57747095	      0.67330389	     -4.28542038	      0.44964913	      0.00000000	      0.00000000	    -62.27428496	     -2.58905656	      1.79027759	     89.51426113	    -24.92654001	     23.93126676	     65.12174546	     41.39872911	      0.00000000	      0.00000000	     88.83454195	    -12.72646004	     21.40590532	     69.25014571	     39.56136195	      0.00000000	      0.00000000
      2.55500000	    -19.50091830	      1.37089966	     -0.22510952	      0.07338198	      1.11579411	     -0.25652082	      0.00000000	      0.50000000	      0.00000000	      0.25000000	     76.98415677	     -4.72269645	      5.39796137	    105.05921290	      1.83362917	     -4.91159556	     -6.34657524	      0.00000000	      0.00000000	     55.09544497	     -5.78644768	     -5.42492388	     37.39790581	      0.65271659	     -5.03468227	      0.75163986	      0.00000000	      0.00000000	    -62.18876317	     -2.52381490	      2.34142147	     89.51713351	    -24.81809416	     24.13103641	     65.16489484	     41.36634704	      0.00000000	      0.00000000	     88.70185455	    -12.89337539	     21.36732713	     69.14509289	     39.55204870	      0.00000000	      0.00000000
      2.56000000	    -19.26786192	      1.29622891	     -0.84796604	      0.07465443	      1.11650135	     -0.25700905	      0.00000000	      0.50000000	      0.00000000	      0.25000000	     77.50369763	     -4.30700725	      5.57694463	    105.90656831	      1.84841832	     -4.33093872	     -5.66081696	      0.00000000	      0.00000000	     53.78024725	     -6.21952420	     -5.96796902	     36.17281695	      0.63133476	     -5.84988411	      0.92930629	      0.00000000	      0.00000000	    -62.35577188	     -2.79793864	      2.63380081	     89.52995777	    -24.89382426	     24.72585771	     65.16262166	     41.16496490	      0.00000000	      0.00000000	     88.61593847	    -13.03030457	     21.56735438	     68.79465582	     39.55918533	      0.00000000	      0.00000000
      2.56500000	    -19.25009093	      0.90657198	     -1.29428812	      0.07568128	      1.11663661	     -0.25775729	      0.00000000	      0.50000000	      0.00000000	      0.25000000	     78.23724717	     -3.96314117	      5.32952467	    106.68494297	      1.86200352	     -4.06682254	     -5.46959761	      0.00000000	      0.00000000	     52.87135688	     -6.71452367	     -6.02137625	     35.16910480	      0.61381667	     -6.50994159	      1.17235527	      0.00000000	      0.00000000	    -62.28843060	     -2.65638392	      3.19850264	     89.53708641	    -24.74766360	     24.89134045	     65.20280271	     41.11087214	      0.00000000	      0.00000000	     88.46484310	    -13.23378420	     21.55567973	     68.69606952	     39.56129280	      0.00000000	      0.00000000
      2.57000000	    -19.23441199	      0.57702692	     -1.79527814	      0.07676419	      1.11659969	     -0.25858581	      0.00000000	      0.50000000	      0.00000000	      0.25000000	     78.98286281	     -3.56715139	      5.20286328	    107.46943591	      1.87569550	     -3.71678271	     -5.27250422	      0.00000000	      0.00000000	     51.97058289	     -7.19999601	     -6.19122625	     34.25268321	      0.59782210	     -7.07735548	      1.32371688	      0.00000000	      0.00000000	    -62.21953920	     -2.56497726	      3.76861287	     89.54844609	    -24.57028089	     25.04972310	     65.22758538	     41.06813487	      0.00000000	      0.00000000	     88.29899968	    -13.44721081	     21.55467679	     68.59548367	     39.56212851	      0.00000000	      0.00000000
      2.57500000	    -19.07720421	      0.35628122	     -2.43192870	      0.07791992	      1.11688603	     -0.25921244	      0.00000000	      0.50000000	      0.00000000	      0.25000000	     79.58046853	     -3.10179474	      5.19401063	    108.18967674	      1.88826608	     -3.21680661	     -4.68531506	      0.00000000	      0.00000000	     50.88030040	     -7.73033516	     -6.68860845	     33.35238340	      0.58210890	     -7.77906473	      1.38860024	      0.00000000	      0.00000000	    -62.28818486	     -2.72309617	      4.15805643	     89.55320483	    -24.42543213	     25.42457175	     65.14005528	     40.92278340	      0.00000000	      0.00000000	     88.14615892	    -13.71307246	     21.67899093	     68.44098251	     39.59663192	      0.00000000	      0.00000000
